<svg xmlns="http://www.w3.org/2000/svg" xmlns:xlink="http://www.w3.org/1999/xlink" width="1242.477" height="541.59" viewBox="0 0 1242.477 541.59">
  <defs>
    <linearGradient id="linear-gradient" x1="0.763" y1="-1.174" x2="0.5" y2="1.13" gradientUnits="objectBoundingBox">
      <stop offset="0" stop-color="#df7d2a"/>
      <stop offset="0.661" stop-color="#2c3465"/>
      <stop offset="1" stop-color="#080a13"/>
    </linearGradient>
    <clipPath id="clip-path">
      <rect id="Rect치ngulo_402784" data-name="Rect치ngulo 402784" width="40" height="32" transform="translate(344 330.5)" fill="#fff" stroke="#707070" stroke-width="1"/>
    </clipPath>
    <clipPath id="clip-path-2">
      <rect id="Rect치ngulo_402785" data-name="Rect치ngulo 402785" width="32.577" height="26.062" transform="translate(0)" fill="#fff" stroke="#707070" stroke-width="1"/>
    </clipPath>
  </defs>
  <g id="fnd-1" transform="translate(15559.904 4115.833)">
    <path id="vista-lateral-hombre-revelando-fotos_1_" data-name="vista-lateral-hombre-revelando-fotos (1)" d="M1218.775,0H23.034C10.313,0,0,10.746,0,24V517.589c0,13.255,10.313,24,23.034,24H1218.775c12.721,0,23.034-10.746,23.034-24V24C1241.809,10.746,1231.5,0,1218.775,0Z" transform="translate(-15559.904 -4115.833)" opacity="0.74" fill="url(#linear-gradient)"/>
    <path id="vista-lateral-hombre-revelando-fotos_1_2" data-name="vista-lateral-hombre-revelando-fotos (1)" d="M1218.775,0H23.034C10.313,0,0,10.746,0,24V517.589c0,13.255,10.313,24,23.034,24H1218.775c12.721,0,23.034-10.746,23.034-24V24C1241.809,10.746,1231.5,0,1218.775,0Z" transform="translate(-15559.236 -4115.833)" opacity="0.95" fill="url(#linear-gradient)"/>
    <g id="Grupo_1110714" data-name="Grupo 1110714" transform="translate(-9854.613 7742.134)" opacity="0.35">
      <g id="Grupo_1105124" data-name="Grupo 1105124" transform="translate(-6738 -11920.751)">
        <path id="Trazado_898887" data-name="Trazado 898887" d="M152.943,388.6h-1.108v-1.108a.708.708,0,1,0-1.416,0V388.6h-1.108a.709.709,0,0,0,0,1.418h1.108v1.107a.708.708,0,1,0,1.416,0v-1.107h1.108a.709.709,0,0,0,0-1.418Z" transform="translate(948.385 -232.334)" fill="#ffcf11"/>
        <path id="Trazado_898888" data-name="Trazado 898888" d="M168.129,367.239H166v-2.133a.708.708,0,1,0-1.417,0v2.133h-2.133a.709.709,0,0,0,0,1.418h2.133v2.133a.708.708,0,1,0,1.417,0v-2.133h2.133a.709.709,0,0,0,0-1.418Z" transform="translate(948.385 -232.334)" fill="#ffcf11"/>
        <path id="Trazado_898889" data-name="Trazado 898889" d="M121.875,377.169h-2.067V375.1a.709.709,0,1,0-1.417,0v2.067h-2.067a.709.709,0,0,0,0,1.418h2.067v2.066a.709.709,0,1,0,1.417,0v-2.066h2.067a.709.709,0,0,0,0-1.418Z" transform="translate(948.385 -232.334)" fill="#ffcf11"/>
        <path id="Trazado_898890" data-name="Trazado 898890" d="M132.1,387.972a1.64,1.64,0,1,0,2.32,0A1.64,1.64,0,0,0,132.1,387.972Z" transform="translate(948.385 -232.334)" fill="#ffcf11"/>
        <path id="Trazado_898891" data-name="Trazado 898891" d="M112.95,352.171a2.066,2.066,0,1,0,2.066,2.066A2.066,2.066,0,0,0,112.95,352.171Z" transform="translate(948.385 -232.334)" fill="#ffcf11"/>
        <path id="Trazado_898892" data-name="Trazado 898892" d="M169.182,350.336a1.433,1.433,0,1,0,1.433,1.433A1.433,1.433,0,0,0,169.182,350.336Z" transform="translate(948.385 -232.334)" fill="#ffcf11"/>
        <circle id="Elipse_12169" data-name="Elipse 12169" cx="1.479" cy="1.479" r="1.479" transform="translate(1109.778 150.361)" fill="#ffcf11"/>
        <circle id="Elipse_12170" data-name="Elipse 12170" cx="1.059" cy="1.059" r="1.059" transform="translate(1072.044 130.654)" fill="#ffcf11"/>
        <g id="Enmascarar_grupo_1099158" data-name="Enmascarar grupo 1099158" transform="translate(730 -208.5)" clip-path="url(#clip-path)">
          <g id="Grupo_1105098" data-name="Grupo 1105098" transform="translate(278.093 283.263)">
            <text id="THE_DIAMOND" data-name="THE DIAMOND" transform="translate(0 150.09)" fill="#4f4641" font-size="22" font-family="SegoeUI, Segoe UI"><tspan x="0" y="0">THE DIAMOND</tspan></text>
            <g id="Grupo_1105091" data-name="Grupo 1105091" transform="translate(15.521 155.46)">
              <text id="ORIGINAL_BRAND" data-name="ORIGINAL BRAND" transform="translate(0 10)" fill="#4f4641" font-size="9" font-family="SegoeUI, Segoe UI"><tspan x="0" y="0">ORIGINAL BRAND</tspan></text>
            </g>
            <g id="Grupo_1105096" data-name="Grupo 1105096" transform="translate(12.378 71.812)">
              <g id="Grupo_1105092" data-name="Grupo 1105092">
                <circle id="Elipse_12173" data-name="Elipse 12173" cx="12.547" cy="12.547" r="12.547" transform="translate(0.768 0.768)" fill="#fff"/>
                <path id="Trazado_898905" data-name="Trazado 898905" d="M307.9,379.465a13.315,13.315,0,1,1,13.315-13.315A13.331,13.331,0,0,1,307.9,379.465Zm0-25.094a11.779,11.779,0,1,0,11.779,11.779A11.793,11.793,0,0,0,307.9,354.371Z" transform="translate(-294.588 -352.835)" fill="#4f4641"/>
              </g>
              <g id="Grupo_1105093" data-name="Grupo 1105093" transform="translate(120.375)">
                <circle id="Elipse_12174" data-name="Elipse 12174" cx="12.547" cy="12.547" r="12.547" transform="translate(0.768 0.768)" fill="#fff"/>
                <path id="Trazado_898906" data-name="Trazado 898906" d="M419.018,379.465a13.315,13.315,0,1,1,13.315-13.315A13.331,13.331,0,0,1,419.018,379.465Zm0-25.094A11.779,11.779,0,1,0,430.8,366.15,11.793,11.793,0,0,0,419.018,354.371Z" transform="translate(-405.703 -352.835)" fill="#4f4641"/>
              </g>
              <g id="Grupo_1105094" data-name="Grupo 1105094" transform="translate(5.07 0.64)">
                <text id="_19" data-name="19" transform="translate(0 17)" fill="#4f4641" font-size="16" font-family="SegoeUI, Segoe UI"><tspan x="0" y="0">19</tspan></text>
              </g>
              <g id="Grupo_1105095" data-name="Grupo 1105095" transform="translate(126.394 0.64)">
                <text id="_71" data-name="71" transform="translate(0 17)" fill="#4f4641" font-size="16" font-family="SegoeUI, Segoe UI"><tspan x="0" y="0">71</tspan></text>
              </g>
            </g>
            <g id="Grupo_1105097" data-name="Grupo 1105097" transform="translate(33.157)">
              <path id="Trazado_898907" data-name="Trazado 898907" d="M339.069,370.491a42.32,42.32,0,0,0,27.423,9.629,47.878,47.878,0,0,0,8.2-.691c38.262-6.671,44.463-59.975,44.522-60.513a.768.768,0,0,0-.576-.828c-.134-.034-10.566-2.687-18.045-7.214.045-.105.074-.176.077-.185a.768.768,0,0,0-.451-.988.757.757,0,0,0-.923.346,19.876,19.876,0,0,1-4.1-3.514c-4.579-5.408-5.712-9.8-5.994-11.595a3,3,0,0,0,.131-.873c0-4.883-11.767-7.517-22.839-7.517s-22.839,2.636-22.839,7.517a2.988,2.988,0,0,0,.131.872c-.282,1.793-1.416,6.188-5.994,11.595a19.774,19.774,0,0,1-4.08,3.5.761.761,0,0,0-.819-.361.822.822,0,0,0-.616.94,2.257,2.257,0,0,0,.061.3c-7.475,4.507-17.851,7.147-17.987,7.18a.767.767,0,0,0-.575.836C313.815,319.269,318.184,353.471,339.069,370.491Zm27.422-82.408c11.661,0,20.028,2.72,21.16,5.374a1.564,1.564,0,0,1,.143.608,1.8,1.8,0,0,1-.389,1.049c-1.817,2.506-9.9,4.933-20.914,4.933s-19.1-2.428-20.914-4.933a1.8,1.8,0,0,1-.389-1.049,1.564,1.564,0,0,1,.143-.608C346.465,290.8,354.831,288.083,366.492,288.083Zm-27.53,19.441a27.943,27.943,0,0,0,6.018-10.8c3.374,3.17,12.662,4.855,21.512,4.855S384.629,299.9,388,296.728a27.944,27.944,0,0,0,6.018,10.8,21.769,21.769,0,0,0,4.588,3.916c-2.136,3.975-10.325,15.8-32.1,15.8-21.523,0-30.386-11.647-32.3-15.688A22.054,22.054,0,0,0,338.962,307.525ZM361.4,346.9c1.808.135,3.588.192,5.1.192s3.288-.057,5.1-.192l-5.1,11.855Zm8.234-3.455,1.63,1.949c-1.436.1-3.024.163-4.77.163s-3.333-.062-4.77-.163l1.63-1.949.147-.177,2.992-3.575,2.992,3.575ZM357.6,337.826c1.54,1.025,5.07,1.323,7.272,1.407L361.5,343.27l-.147.177-1.494,1.784c-3.671-.387-6.037-1.048-6.942-1.588a1.685,1.685,0,0,1-.276-.2c-.005-.005-.014-.01-.02-.015l.058-.065.085-.1Zm2.053,8.918,4.134,9.618-8.913-10.422A33.835,33.835,0,0,0,359.656,346.744Zm13.672,0a33.959,33.959,0,0,0,4.779-.8l-8.913,10.422Zm6.98-3.377.047.053c-.01.009-.025.018-.035.027a1.629,1.629,0,0,1-.221.164c-.888.556-3.267,1.229-6.971,1.621l-1.493-1.784-.147-.177-3.379-4.038c2.2-.085,5.732-.382,7.272-1.407l4.841,5.445Zm-5.76-6.8a1.266,1.266,0,0,1-.155.1c-.836.441-3.528,1.07-7.9,1.07s-7.063-.629-7.9-1.07a1.086,1.086,0,0,1-.155-.1,1.252,1.252,0,0,1,.154-.1c.835-.44,3.526-1.069,7.9-1.069s7.066.629,7.9,1.069A1.291,1.291,0,0,1,374.547,336.565Zm-41.635-24.2c2.312,4.72,11.288,16.131,32.811,16.4v5.108c-2.492.049-8.6.386-8.853,2.468l-5.709,6.421a.729.729,0,0,0-.052.089.8.8,0,0,0-.089.152.835.835,0,0,0-.033.158.782.782,0,0,0-.023.112c0,.008,0,.014,0,.022a.575.575,0,0,0,.008.062.761.761,0,0,0,.173.59l.057.067.419.491L365.9,361.2l0,0,0,0,.014.013c.014.016.033.027.048.042a.764.764,0,0,0,.166.117.365.365,0,0,0,.038.024s.005,0,.009.007.023,0,.035.008a.686.686,0,0,0,.539,0c.011,0,.023,0,.035-.008s.005,0,.009-.007.025-.017.038-.024a.765.765,0,0,0,.166-.117c.016-.015.034-.026.049-.042l.014-.013,0,0,0,0L381.354,344.5l.42-.491.057-.066a.757.757,0,0,0,.173-.59c0-.021.007-.041.008-.062s0-.014,0-.022a26.224,26.224,0,0,0-.053-.269.757.757,0,0,0-.121-.207c-.009-.011-.011-.024-.021-.035l-.01-.011-.038-.042-5.662-6.368c-.255-2.082-6.361-2.419-8.854-2.468v-5.109C389,328.49,397.517,316.6,399.9,312.26c6.63,4,15.238,6.485,17.7,7.147-.832,6.086-8.311,52.431-43.176,58.511a46.336,46.336,0,0,1-7.934.667,40.823,40.823,0,0,1-26.454-9.283c-18.809-15.327-23.931-45.084-24.648-49.9C317.842,318.744,326.314,316.294,332.913,312.36Z" transform="translate(-313.769 -286.547)" fill="#fff"/>
              <path id="Trazado_898908" data-name="Trazado 898908" d="M407.791,389.864c-.113,0-11.384-.07-16.332-6.477-2.291-2.965-3.267-6.947-3.682-9.767a.768.768,0,1,0-1.52.224c.442,3,1.493,7.254,3.988,10.482,4.675,6.05,14.019,6.926,16.779,7.053v6.694H324.44v-6.694c2.759-.126,12.105-1,16.78-7.053,2.583-3.343,3.625-7.769,4.044-10.893a.768.768,0,0,0-1.522-.206c-.394,2.939-1.364,7.086-3.736,10.158-4.942,6.395-16.221,6.477-16.333,6.477a.768.768,0,0,0-.768.768v8.208a.767.767,0,0,0,.768.768h84.119a.767.767,0,0,0,.768-.768v-8.208a.768.768,0,0,0-.768-.767Z" transform="translate(-313.008 -279.379)" fill="#fff"/>
            </g>
          </g>
        </g>
      </g>
      <g id="Grupo_1105127" data-name="Grupo 1105127" transform="matrix(0.985, -0.174, 0.174, 0.985, 6519.885, -1511.437)" opacity="0.9">
        <path id="Trazado_898925" data-name="Trazado 898925" d="M340.012,95.944l18.151,27.8a.71.71,0,0,0,1.188,0l18.152-27.8a.712.712,0,0,0,0-.775l-18.152-27.8a.738.738,0,0,0-1.188,0l-18.151,27.8A.708.708,0,0,0,340.012,95.944Zm7.736.321,10.3,15.774v8.933L341.915,96.264h5.833Zm1.23-.708,9.778-14.975,9.778,14.975-9.778,14.976Zm10.488,25.416V112.04l10.3-15.774H375.6Zm10.3-26.125-10.3-15.774V70.141L375.6,94.848ZM358.048,70.141v8.933l-10.3,15.774h-5.833Z" transform="translate(-10388 -12312)" fill="#ffcf11"/>
        <path id="Trazado_898926" data-name="Trazado 898926" d="M378.645,77.956h1.329v1.33a.709.709,0,0,0,1.418,0v-1.33h1.329a.709.709,0,1,0,0-1.417h-1.329v-1.33a.709.709,0,0,0-1.418,0v1.33h-1.329a.709.709,0,1,0,0,1.417Z" transform="translate(-10388 -12312)" fill="#fff"/>
        <path id="Trazado_898927" data-name="Trazado 898927" d="M345.868,153.134a.708.708,0,0,0,.709-.708v-2.173h2.173a.708.708,0,1,0,0-1.416h-2.173v-2.173a.709.709,0,0,0-1.418,0v2.173h-2.173a.708.708,0,1,0,0,1.416h2.173v2.173A.709.709,0,0,0,345.868,153.134Z" transform="translate(-10388 -12312)" fill="#fff"/>
        <path id="Trazado_898928" data-name="Trazado 898928" d="M366.5,56.825h2.172V59a.709.709,0,0,0,1.418,0V56.825h2.173a.708.708,0,1,0,0-1.416h-2.173V53.236a.709.709,0,0,0-1.418,0v2.173H366.5a.708.708,0,1,0,0,1.416Z" transform="translate(-10388 -12312)" fill="#fff"/>
        <path id="Trazado_898929" data-name="Trazado 898929" d="M326.46,84.159h3.456v3.456a.709.709,0,0,0,1.418,0V84.159h3.456a.709.709,0,1,0,0-1.417h-3.456V79.286a.709.709,0,0,0-1.418,0v3.456H326.46a.709.709,0,1,0,0,1.417Z" transform="translate(-10388 -12312)" fill="#fff"/>
        <path id="Trazado_898930" data-name="Trazado 898930" d="M337.958,126.261a2.906,2.906,0,1,0-2.906-2.907A2.906,2.906,0,0,0,337.958,126.261Z" transform="translate(-10388 -12312)" fill="#fff"/>
        <path id="Trazado_898931" data-name="Trazado 898931" d="M388.464,97.01a1.453,1.453,0,1,0-1.453-1.453A1.453,1.453,0,0,0,388.464,97.01Z" transform="translate(-10388 -12312)" fill="#fff"/>
        <circle id="Elipse_12182" data-name="Elipse 12182" cx="1.5" cy="1.5" r="1.5" transform="translate(-10026.5 -12178.013)" fill="#fff"/>
        <path id="Trazado_898932" data-name="Trazado 898932" d="M339.522,65.827a1.564,1.564,0,1,0-1.564-1.564A1.564,1.564,0,0,0,339.522,65.827Z" transform="translate(-10388 -12312)" fill="#fff"/>
      </g>
      <path id="Trazado_898964" data-name="Trazado 898964" d="M1212.631,105.455c16.658-8.328,36.509,30.715,56.609,30.465s25.679-5.529,38.039-21.379c2.39-3.07,5.016-16,3.786-19.687-1.58-4.73-11.662-8.072-15.522-4.922s-6.1,10.792-4.544,15.522c3.34,10.1,39.386,27.891,49.976,26.881s17.037-8.33,20.822-17.795" transform="translate(-6838 -11880)" fill="none" stroke="#fff" stroke-linecap="round" stroke-linejoin="round" stroke-width="1.04" stroke-dasharray="0 0 7.39 5.91"/>
    </g>
    <path id="Trazado_900416" data-name="Trazado 900416" d="M1.808,0A1.808,1.808,0,1,0,3.615,1.808,1.807,1.807,0,0,0,1.808,0Z" transform="matrix(0.875, 0.485, -0.485, 0.875, -15416.199, -3788.042)" fill="#ffcf11" opacity="0.65"/>
    <path id="Trazado_900417" data-name="Trazado 900417" d="M6.024,0A1.133,1.133,0,0,0,4.89,1.135V4.89H1.135a1.134,1.134,0,1,0,0,2.269H4.89v3.755a1.134,1.134,0,1,0,2.267,0V7.159h3.755a1.134,1.134,0,0,0,0-2.269H7.157V1.135A1.133,1.133,0,0,0,6.024,0Z" transform="translate(-15422.678 -3780.325) rotate(48)" fill="#fff" opacity="0.5"/>
    <g id="Grupo_1110716" data-name="Grupo 1110716" transform="translate(-8397.076 7722.503)" opacity="0.21">
      <g id="Grupo_1105142" data-name="Grupo 1105142" transform="translate(-6369.255 -11791.633) rotate(-20)">
        <path id="Trazado_898881" data-name="Trazado 898881" d="M.908,4.846H3.03V6.968a.908.908,0,1,0,1.816,0V4.846H6.969a.908.908,0,0,0,0-1.816H4.846V.908a.908.908,0,1,0-1.816,0V3.03H.908a.908.908,0,0,0,0,1.816Z" transform="translate(55.033 12.675)" fill="#ffcf11"/>
        <path id="Trazado_898882" data-name="Trazado 898882" d="M.908,4.569H2.755V6.415a.908.908,0,0,0,1.816,0V4.569H6.416a.908.908,0,0,0,0-1.816H4.57V.908a.908.908,0,0,0-1.816,0V2.753H.908a.908.908,0,0,0,0,1.816Z" transform="translate(23.188 58.092)" fill="#ffcf11"/>
        <path id="Trazado_898883" data-name="Trazado 898883" d="M0,5.408a.907.907,0,0,0,.908.908H4.5V9.909a.908.908,0,0,0,1.816,0V6.316H9.909a.908.908,0,0,0,0-1.816H6.316V.908A.908.908,0,0,0,4.5.908V4.5H.908A.908.908,0,0,0,0,5.408Z" transform="translate(1.278 39.764)" fill="#ffcf11"/>
        <path id="Trazado_898884" data-name="Trazado 898884" d="M2.844,5.688A2.844,2.844,0,1,0,0,2.844,2.844,2.844,0,0,0,2.844,5.688Z" transform="translate(46.779 50.607)" fill="#ffcf11"/>
        <path id="Trazado_898885" data-name="Trazado 898885" d="M0,2.032A2.032,2.032,0,1,0,2.032,0,2.033,2.033,0,0,0,0,2.032Z" transform="translate(59.97 35.012)" fill="#ffcf11"/>
        <path id="Trazado_898886" data-name="Trazado 898886" d="M2.186,4.372A2.186,2.186,0,1,0,0,2.186,2.186,2.186,0,0,0,2.186,4.372Z" transform="translate(0 17.456)" fill="#ffcf11"/>
        <path id="Trazado_898913" data-name="Trazado 898913" d="M.61,7.932a1.214,1.214,0,0,0-.375.337C.219,8.292.217,8.318.2,8.34a1.327,1.327,0,0,0-.066.144A1.181,1.181,0,0,0,.024,8.9c0,.033-.024.061-.024.094V40.7c0,.033.023.061.024.094a1.171,1.171,0,0,0,.111.414,1.208,1.208,0,0,0,.066.146.646.646,0,0,0,.033.071,1.159,1.159,0,0,0,.255.215c.047.038.073.1.125.125l15.022,8.673c.017.01.038.005.056.016a1.111,1.111,0,0,0,1.119,0c.017-.009.038-.005.056-.016L31.89,41.768c.054-.031.078-.089.125-.125a1.252,1.252,0,0,0,.255-.215c.016-.023.017-.049.033-.071a1.208,1.208,0,0,0,.066-.146,1.183,1.183,0,0,0,.111-.414c0-.033.024-.061.024-.094V8.994c0-.033-.023-.061-.024-.094a1.173,1.173,0,0,0-.111-.414A1.212,1.212,0,0,0,32.3,8.34c-.014-.023-.017-.049-.033-.071a1.223,1.223,0,0,0-.374-.335l-.005-.007L17.72.135c.271-.3-3.652,0-2.7,0C15.21.135.612,7.93.61,7.932ZM25.836,26.077h4.2V38.282l-4.2-3.055Zm4.2-2.462h-4.2V14.464l4.2-3.055Zm-6.666,1.232v10.3l-7.124,4.113L9.123,35.146v-20.6l7.126-4.115,7.124,4.113ZM6.661,23.614h-4.2V11.409l4.2,3.057Zm-4.2,2.462h4.2v9.151l-4.2,3.055ZM15.019,2.451V8.3l-7.048,4.07L3.486,9.11Zm-7.05,34.87,7.05,4.07v5.851L3.486,40.583Zm9.512,9.919V41.389l7.046-4.07,4.487,3.26ZM29.014,9.11l-4.487,3.26L17.481,8.3V2.45Z" transform="translate(14.274 0)" fill="#ffcf11"/>
      </g>
      <g id="Grupo_1105143" data-name="Grupo 1105143" transform="translate(-6006.719 -11846.602) rotate(19)">
        <path id="Trazado_898860" data-name="Trazado 898860" d="M4.4,8.8a.9.9,0,0,0,.9-.9V5.3H7.9a.9.9,0,0,0,0-1.8H5.3V.9A.9.9,0,0,0,3.5.9V3.5H.9a.9.9,0,1,0,0,1.8H3.5V7.9A.9.9,0,0,0,4.4,8.8Z" transform="translate(0 41.708)" fill="#fff"/>
        <path id="Trazado_898861" data-name="Trazado 898861" d="M4.4,8.8a.9.9,0,0,0,.9-.9V5.3H7.9a.9.9,0,0,0,0-1.8H5.3V.9A.9.9,0,0,0,3.5.9V3.5H.9a.9.9,0,1,0,0,1.8H3.5V7.9A.9.9,0,0,0,4.4,8.8Z" transform="translate(60.217 41.708)" fill="#fff"/>
        <circle id="Elipse_12163" data-name="Elipse 12163" cx="2.737" cy="2.737" r="2.737" transform="translate(31.549 81.392)" fill="#fff"/>
        <circle id="Elipse_12164" data-name="Elipse 12164" cx="1.955" cy="1.955" r="1.955" transform="translate(58.262 18.743)" fill="#fff"/>
        <path id="Trazado_898863" data-name="Trazado 898863" d="M.164,12.272l-.008.01a.892.892,0,0,0-.11.259c-.006.023-.023.041-.028.065a.567.567,0,0,0,0,.066c0,.029-.018.055-.018.084V38.049a.613.613,0,0,0,.018.084.906.906,0,0,0,.038.185.875.875,0,0,0,.061.147.868.868,0,0,0,.108.155.948.948,0,0,0,.055.079L13.5,51.261c.022.02.048.027.07.044s.033.039.055.055a.475.475,0,0,0,.052.024.6.6,0,0,0,.065.03c.028.013.053.028.081.038a.885.885,0,0,0,.3.056h0a.883.883,0,0,0,.294-.056.691.691,0,0,0,.083-.038.6.6,0,0,0,.065-.03c.017-.01.036-.014.052-.024s.034-.038.055-.055.049-.025.07-.044L27.967,38.7c.023-.023.033-.053.055-.077a.95.95,0,0,0,.11-.157.878.878,0,0,0,.061-.147.918.918,0,0,0,.038-.187c0-.029.018-.055.018-.084V12.756c0-.029-.015-.055-.018-.084s0-.043,0-.066a.588.588,0,0,0-.028-.065.89.89,0,0,0-.11-.259l-.006-.009a.858.858,0,0,0-.136-.187L14.724.222C14.715.214,14.7.211,14.694.2a.709.709,0,0,0-.081-.056C14.6.136,14.588.12,14.57.111S14.527.1,14.506.089A.859.859,0,0,0,14.4.041a.724.724,0,0,0-.1-.023A.866.866,0,0,0,14.178,0a.819.819,0,0,0-.112,0,.865.865,0,0,0-.113.017.949.949,0,0,0-.1.023.94.94,0,0,0-.11.048c-.02.01-.044.01-.065.022s-.025.027-.042.037a.691.691,0,0,0-.08.056c-.01.008-.022.01-.032.019L.3,12.088A1.031,1.031,0,0,0,.164,12.272Zm5.57,2.422V38.12l-3.934-.8V13.889ZM14.126,2.7l5.941,10.362H8.187Zm12.326,11.19V37.315l-3.935.8V14.694ZM14.126,48.975,8.3,40.122H19.95ZM20.72,14.859V38.322H7.533V14.859ZM3.8,39.56l2.29.468,2.992,4.548Zm15.375,5.018,2.992-4.55,2.29-.468Zm6.277-32.32-3.374.691L17.687,5.294ZM10.564,5.294,6.176,12.949,2.8,12.258Z" transform="translate(22.176 22.245)" fill="#fff"/>
      </g>
      <path id="Trazado_898985" data-name="Trazado 898985" d="M1058.08,119.194c7.43,10.442,53.154,60.537,90.066,23.132,45.28-72.841,79.646-9.842,91.545-9.99,23.132,19.833,55.228-1.945,67.588-17.795,2.39-3.07,5.016-16,3.786-19.687-1.58-4.73-11.662-8.072-15.522-4.922s-6.1,10.792-4.544,15.522c3.34,10.1,29.408,31.458,44.666,29.488s22.147,2.461,40.358-26.084" transform="translate(-7378 -11871.396)" fill="none" stroke="#fff" stroke-linecap="round" stroke-linejoin="round" stroke-width="1.04" stroke-dasharray="0 0 7.39 5.91"/>
    </g>
    <g id="Grupo_1110717" data-name="Grupo 1110717" transform="translate(-15256.836 -3953.309)" opacity="0.29">
      <g id="Grupo_1105123" data-name="Grupo 1105123" transform="matrix(0.951, -0.309, 0.309, 0.951, 120.323, 48.102)">
        <path id="Trazado_898893" data-name="Trazado 898893" d="M3.535,1.48h-.9v-.9a.577.577,0,1,0-1.153,0v.9h-.9a.577.577,0,0,0,0,1.155h.9v.9a.577.577,0,1,0,1.153,0v-.9h.9a.577.577,0,0,0,0-1.155Z" transform="translate(30.72 29.684)" fill="#ffcf11"/>
        <path id="Trazado_898894" data-name="Trazado 898894" d="M5.205,2.315H3.468V.577a.577.577,0,1,0-1.154,0V2.315H.577a.577.577,0,0,0,0,1.155H2.314V5.207a.577.577,0,1,0,1.154,0V3.47H5.205a.577.577,0,0,0,0-1.155Z" transform="translate(41.417 11.452)" fill="#ffcf11"/>
        <path id="Trazado_898895" data-name="Trazado 898895" d="M5.1,2.261H3.415V.577a.577.577,0,1,0-1.154,0V2.261H.577a.577.577,0,0,0,0,1.155H2.261V5.1a.577.577,0,1,0,1.154,0V3.416H5.1a.577.577,0,0,0,0-1.155Z" transform="translate(3.853 19.593)" fill="#ffcf11"/>
        <path id="Trazado_898896" data-name="Trazado 898896" d="M.392.391a1.336,1.336,0,1,0,1.889,0A1.336,1.336,0,0,0,.392.391Z" transform="translate(16.891 30.261)" fill="#ffcf11"/>
        <path id="Trazado_898897" data-name="Trazado 898897" d="M1.683,0A1.683,1.683,0,1,0,3.365,1.683,1.683,1.683,0,0,0,1.683,0Z" transform="translate(0 1.494)" fill="#ffcf11"/>
        <path id="Trazado_898898" data-name="Trazado 898898" d="M1.167,0A1.167,1.167,0,1,0,2.334,1.167,1.167,1.167,0,0,0,1.167,0Z" transform="translate(46.313)" fill="#ffcf11"/>
        <circle id="Elipse_12171" data-name="Elipse 12171" cx="1.205" cy="1.205" r="1.205" transform="translate(41.137 26.354)" fill="#ffcf11"/>
        <circle id="Elipse_12172" data-name="Elipse 12172" cx="0.862" cy="0.862" r="0.862" transform="translate(10.405 10.304)" fill="#ffcf11"/>
        <g id="Enmascarar_grupo_1099159" data-name="Enmascarar grupo 1099159" transform="translate(10.18 2.437)" clip-path="url(#clip-path-2)">
          <g id="Grupo_1105106" data-name="Grupo 1105106" transform="translate(-53.677 -38.471)">
            <text id="THE_DIAMOND-2" data-name="THE DIAMOND" transform="translate(0 120.692)" fill="#4f4641" font-size="17" font-family="SegoeUI, Segoe UI"><tspan x="0" y="0">THE DIAMOND</tspan></text>
            <g id="Grupo_1105099" data-name="Grupo 1105099" transform="translate(12.641 126.612)">
              <text id="ORIGINAL_BRAND-2" data-name="ORIGINAL BRAND" transform="translate(0 6)" fill="#4f4641" font-size="6" font-family="SegoeUI, Segoe UI"><tspan x="0" y="0">ORIGINAL BRAND</tspan></text>
            </g>
            <g id="Grupo_1105104" data-name="Grupo 1105104" transform="translate(10.081 58.486)">
              <g id="Grupo_1105100" data-name="Grupo 1105100">
                <circle id="Elipse_12175" data-name="Elipse 12175" cx="10.219" cy="10.219" r="10.219" transform="translate(0.626 0.626)" fill="#fff"/>
                <path id="Trazado_898909" data-name="Trazado 898909" d="M10.844,21.689A10.844,10.844,0,1,1,21.689,10.844,10.857,10.857,0,0,1,10.844,21.689Zm0-20.438a9.593,9.593,0,1,0,9.593,9.593A9.6,9.6,0,0,0,10.844,1.251Z" fill="#4f4641"/>
              </g>
              <g id="Grupo_1105101" data-name="Grupo 1105101" transform="translate(98.037 0)">
                <circle id="Elipse_12176" data-name="Elipse 12176" cx="10.219" cy="10.219" r="10.219" transform="translate(0.626 0.626)" fill="#fff"/>
                <path id="Trazado_898910" data-name="Trazado 898910" d="M10.844,21.689A10.844,10.844,0,1,1,21.689,10.844,10.857,10.857,0,0,1,10.844,21.689Zm0-20.438a9.593,9.593,0,1,0,9.593,9.593A9.6,9.6,0,0,0,10.844,1.251Z" fill="#4f4641"/>
              </g>
              <g id="Grupo_1105102" data-name="Grupo 1105102" transform="translate(4.129 0.521)">
                <text id="_19-2" data-name="19" transform="translate(0 13)" fill="#4f4641" font-size="12" font-family="SegoeUI, Segoe UI"><tspan x="0" y="0">19</tspan></text>
              </g>
              <g id="Grupo_1105103" data-name="Grupo 1105103" transform="translate(102.939 0.521)">
                <text id="_71-2" data-name="71" transform="translate(0 13)" fill="#4f4641" font-size="12" font-family="SegoeUI, Segoe UI"><tspan x="0" y="0">71</tspan></text>
              </g>
            </g>
            <g id="Grupo_1105105" data-name="Grupo 1105105" transform="translate(27.004 0)">
              <path id="Trazado_898911" data-name="Trazado 898911" d="M20.605,68.367A34.467,34.467,0,0,0,42.94,76.209a38.994,38.994,0,0,0,6.677-.563C80.779,70.213,85.83,26.8,85.877,26.362a.625.625,0,0,0-.469-.674c-.109-.027-8.605-2.188-14.7-5.875.037-.086.06-.143.063-.151a.626.626,0,0,0-.367-.8.617.617,0,0,0-.752.281,16.188,16.188,0,0,1-3.34-2.862c-3.729-4.4-4.652-7.985-4.882-9.443a2.44,2.44,0,0,0,.107-.711C61.541,2.146,51.957,0,42.94,0s-18.6,2.147-18.6,6.122a2.434,2.434,0,0,0,.107.71c-.229,1.46-1.153,5.04-4.882,9.443a16.1,16.1,0,0,1-3.323,2.85.62.62,0,0,0-.667-.294.669.669,0,0,0-.5.766,1.837,1.837,0,0,0,.049.242C9.034,23.51.583,25.66.473,25.687A.625.625,0,0,0,0,26.368C.037,26.65,3.6,54.505,20.605,68.367ZM42.939,1.251c9.5,0,16.311,2.215,17.233,4.377a1.274,1.274,0,0,1,.116.495,1.467,1.467,0,0,1-.317.854C58.492,9.018,51.91,11,42.939,11S27.385,9.018,25.906,6.977a1.467,1.467,0,0,1-.317-.854,1.274,1.274,0,0,1,.116-.495C26.629,3.467,33.442,1.251,42.939,1.251ZM20.518,17.085a22.758,22.758,0,0,0,4.9-8.794c2.748,2.582,10.312,3.954,17.52,3.954s14.772-1.373,17.52-3.954a22.758,22.758,0,0,0,4.9,8.794,17.729,17.729,0,0,0,3.737,3.19c-1.74,3.237-8.409,12.869-26.147,12.869-17.529,0-24.748-9.486-26.306-12.777A17.962,17.962,0,0,0,20.518,17.085ZM38.79,49.155c1.473.11,2.922.156,4.15.156s2.678-.047,4.15-.156L42.94,58.81ZM45.5,46.341l1.328,1.587c-1.17.083-2.463.132-3.885.132s-2.715-.05-3.885-.132l1.328-1.587.12-.144,2.437-2.912L45.376,46.2Zm-9.8-4.578c1.255.835,4.129,1.077,5.923,1.146L38.871,46.2l-.12.144-1.217,1.453A16.675,16.675,0,0,1,31.88,46.5a1.372,1.372,0,0,1-.225-.161l-.016-.012.048-.053.069-.078Zm1.672,7.263,3.367,7.833L33.48,48.371A27.552,27.552,0,0,0,37.372,49.026Zm11.135,0a27.654,27.654,0,0,0,3.892-.655L45.14,56.859Zm5.685-2.75.038.043-.028.022a1.327,1.327,0,0,1-.18.133,16.19,16.19,0,0,1-5.678,1.32l-1.216-1.453-.12-.144-2.752-3.288c1.795-.069,4.668-.311,5.923-1.146L54.121,46.2ZM49.5,40.736a1.03,1.03,0,0,1-.126.079c-.681.359-2.874.872-6.434.872s-5.753-.513-6.434-.872a.885.885,0,0,1-.126-.079,1.023,1.023,0,0,1,.125-.078c.68-.358,2.872-.871,6.435-.871s5.754.513,6.435.871A1.057,1.057,0,0,1,49.5,40.736ZM15.591,21.023c1.883,3.844,9.194,13.137,26.722,13.361v4.16c-2.029.04-7,.314-7.21,2.01l-4.65,5.229a.6.6,0,0,0-.042.072.649.649,0,0,0-.072.124.68.68,0,0,0-.026.129.637.637,0,0,0-.019.091c0,.006,0,.011,0,.018a.468.468,0,0,0,.006.05.62.62,0,0,0,.141.481l.047.055.341.4L42.46,60.8l0,0,0,0,.011.011c.012.013.026.022.039.034a.623.623,0,0,0,.135.1.3.3,0,0,0,.031.019s0,0,.007.005.019,0,.028.006a.559.559,0,0,0,.439,0c.009,0,.019,0,.028-.006s0,0,.007-.005.02-.014.031-.019a.623.623,0,0,0,.135-.1c.013-.012.027-.021.04-.034l.012-.011,0,0,0,0L55.044,47.2l.342-.4.047-.054a.616.616,0,0,0,.141-.481c0-.017.005-.034.006-.05s0-.012,0-.018a22.7,22.7,0,0,0-.043-.219.618.618,0,0,0-.1-.169c-.007-.009-.009-.019-.017-.028l-.008-.009-.031-.034-4.611-5.186c-.207-1.7-5.181-1.97-7.211-2.01V34.383c17.7-.223,24.644-9.906,26.586-13.442a62.164,62.164,0,0,0,14.415,5.821c-.678,4.957-6.769,42.7-35.164,47.653a37.738,37.738,0,0,1-6.462.543A33.248,33.248,0,0,1,21.393,67.4C6.075,54.915,1.9,30.68,1.319,26.76A62.545,62.545,0,0,0,15.591,21.023Z" fill="#fff"/>
              <path id="Trazado_898912" data-name="Trazado 898912" d="M69.135,14.092c-.092,0-9.271-.057-13.3-5.275a17.559,17.559,0,0,1-3-7.955.626.626,0,0,0-1.238.183,18.788,18.788,0,0,0,3.248,8.537c3.807,4.928,11.418,5.641,13.665,5.744v5.452H1.251V15.325c2.247-.1,9.859-.816,13.666-5.744A19.005,19.005,0,0,0,18.211.71a.624.624,0,0,0-.536-.7.619.619,0,0,0-.7.536,17.79,17.79,0,0,1-3.043,8.273C9.9,14.024.717,14.091.626,14.091A.626.626,0,0,0,0,14.717V21.4a.625.625,0,0,0,.626.626H69.135a.625.625,0,0,0,.626-.626V14.717a.625.625,0,0,0-.626-.625Z" transform="translate(8.06 75.89)" fill="#fff"/>
            </g>
          </g>
        </g>
        <path id="Trazado_898947" data-name="Trazado 898947" d="M1.167,0A1.167,1.167,0,1,0,2.334,1.167,1.167,1.167,0,0,0,1.167,0Z" transform="translate(46.313)" fill="#ffcf11"/>
      </g>
      <g id="Grupo_1105128" data-name="Grupo 1105128" transform="translate(0 24.535) rotate(-28)" opacity="0.87">
        <path id="Trazado_898925-2" data-name="Trazado 898925" d="M.094,23.514l14.783,22.64a.578.578,0,0,0,.968,0l14.784-22.64a.58.58,0,0,0,0-.631L15.844.244a.6.6,0,0,0-.968,0L.094,22.883A.576.576,0,0,0,.094,23.514Zm6.3.261,8.389,12.847V43.9L1.644,23.775H6.395Zm1-.577L15.36,11l7.964,12.2L15.36,35.4Zm8.542,20.7V36.623l8.389-12.847h4.751Zm8.389-21.277L15.938,9.775V2.5l13.14,20.122ZM14.783,2.5V9.775L6.395,22.622H1.644Z" transform="translate(11.521 11.845)" fill="#ffcf11"/>
        <path id="Trazado_898926-2" data-name="Trazado 898926" d="M.577,2.815H1.66V3.9a.577.577,0,0,0,1.155,0V2.815H3.9a.577.577,0,1,0,0-1.154H2.815V.577a.577.577,0,0,0-1.155,0V1.661H.577a.577.577,0,1,0,0,1.154Z" transform="translate(42.501 17.894)" fill="#fff"/>
        <path id="Trazado_898927-2" data-name="Trazado 898927" d="M2.925,5.846A.577.577,0,0,0,3.5,5.269V3.5h1.77a.577.577,0,1,0,0-1.153H3.5V.577a.577.577,0,0,0-1.155,0v1.77H.577a.577.577,0,1,0,0,1.153h1.77v1.77A.577.577,0,0,0,2.925,5.846Z" transform="translate(13.459 76.091)" fill="#fff"/>
        <path id="Trazado_898928-2" data-name="Trazado 898928" d="M.577,3.5H2.346v1.77a.577.577,0,0,0,1.155,0V3.5h1.77a.577.577,0,1,0,0-1.153H3.5V.577a.577.577,0,0,0-1.155,0v1.77H.577a.577.577,0,1,0,0,1.153Z" transform="translate(32.611 0)" fill="#fff"/>
        <path id="Trazado_898929-2" data-name="Trazado 898929" d="M.577,4.546H3.392V7.361a.577.577,0,0,0,1.155,0V4.546H7.362a.577.577,0,1,0,0-1.154H4.547V.577a.577.577,0,0,0-1.155,0V3.392H.577a.577.577,0,1,0,0,1.154Z" transform="translate(0 21.215)" fill="#fff"/>
        <path id="Trazado_898930-2" data-name="Trazado 898930" d="M2.367,4.734A2.367,2.367,0,1,0,0,2.367,2.367,2.367,0,0,0,2.367,4.734Z" transform="translate(7.575 55.316)" fill="#fff"/>
        <path id="Trazado_898931-2" data-name="Trazado 898931" d="M1.183,2.367A1.183,1.183,0,1,0,0,1.183,1.183,1.183,0,0,0,1.183,2.367Z" transform="translate(49.892 33.861)" fill="#fff"/>
        <circle id="Elipse_12182-2" data-name="Elipse 12182" cx="1.222" cy="1.222" r="1.222" transform="translate(29.115 66.343)" fill="#fff"/>
        <path id="Trazado_898932-2" data-name="Trazado 898932" d="M1.274,2.548A1.274,1.274,0,1,0,0,1.274,1.274,1.274,0,0,0,1.274,2.548Z" transform="translate(9.942 8.283)" fill="#fff"/>
        <path id="Trazado_898946" data-name="Trazado 898946" d="M1.183,2.367A1.183,1.183,0,1,0,0,1.183,1.183,1.183,0,0,0,1.183,2.367Z" transform="translate(49.892 33.861)" fill="#fff"/>
      </g>
      <path id="Trazado_898966" data-name="Trazado 898966" d="M1.628,0C-4.547,22.6,8.012,26.671,19.733,26.525c10.979-.137,16.284,22,23.775,16.933a44.948,44.948,0,0,0,10.024-9.749c1.946-2.5,2.924-9.275,1.922-12.28-1.287-3.852-8.8-6.31-11.947-3.744s-5.744,8.65-4.473,12.5c2.72,8.226,25.675,15.784,34.3,14.961s21.516-3.73,24.6-11.439" transform="matrix(0.951, -0.309, 0.309, 0.951, 50.611, 66.487)" fill="none" stroke="#fff" stroke-linecap="round" stroke-linejoin="round" stroke-width="1.04" stroke-dasharray="0 0 7.39 5.91"/>
    </g>
    <path id="Trazado_900418" data-name="Trazado 900418" d="M6.024,0A1.133,1.133,0,0,0,4.89,1.135V4.89H1.135a1.134,1.134,0,1,0,0,2.269H4.89v3.755a1.134,1.134,0,1,0,2.267,0V7.159h3.755a1.134,1.134,0,0,0,0-2.269H7.157V1.135A1.133,1.133,0,0,0,6.024,0Z" transform="translate(-15091.207 -4086.061) rotate(19)" fill="#fff" opacity="0.44"/>
    <path id="Trazado_900419" data-name="Trazado 900419" d="M169.182,350.336a1.433,1.433,0,1,0,1.433,1.433A1.433,1.433,0,0,0,169.182,350.336Z" transform="matrix(0.951, -0.309, 0.309, 0.951, -15344.533, -4347.733)" fill="#ffcf11" opacity="0.61"/>
    <path id="Trazado_900420" data-name="Trazado 900420" d="M6.024,0A1.133,1.133,0,0,0,4.89,1.135V4.89H1.135a1.134,1.134,0,1,0,0,2.269H4.89v3.755a1.134,1.134,0,1,0,2.267,0V7.159h3.755a1.134,1.134,0,0,0,0-2.269H7.157V1.135A1.133,1.133,0,0,0,6.024,0Z" transform="translate(-14615.207 -4076.061) rotate(19)" fill="#fff" opacity="0.39"/>
    <path id="Trazado_900421" data-name="Trazado 900421" d="M4.537,0a.853.853,0,0,0-.854.855V3.683H.855a.854.854,0,1,0,0,1.709H3.683V8.22a.854.854,0,1,0,1.708,0V5.392H8.218a.854.854,0,0,0,0-1.709H5.39V.855A.853.853,0,0,0,4.537,0Z" transform="translate(-14477.207 -4076.061) rotate(19)" fill="#fff" opacity="0.39"/>
    <path id="Trazado_900422" data-name="Trazado 900422" d="M4.537,0a.853.853,0,0,0-.854.855V3.683H.855a.854.854,0,1,0,0,1.709H3.683V8.22a.854.854,0,1,0,1.708,0V5.392H8.218a.854.854,0,0,0,0-1.709H5.39V.855A.853.853,0,0,0,4.537,0Z" transform="translate(-14543.207 -4036.061) rotate(19)" fill="#fff" opacity="0.34"/>
    <path id="Trazado_900423" data-name="Trazado 900423" d="M4.537,0a.853.853,0,0,0-.854.855V3.683H.855a.854.854,0,1,0,0,1.709H3.683V8.22a.854.854,0,1,0,1.708,0V5.392H8.218a.854.854,0,0,0,0-1.709H5.39V.855A.853.853,0,0,0,4.537,0Z" transform="translate(-14418.207 -4041.826) rotate(19)" fill="#fff" opacity="0.39"/>
  </g>
</svg>
