<svg xmlns="http://www.w3.org/2000/svg" width="1171.797" height="819" viewBox="0 0 1171.797 819">
  <g id="Grupo_1110695" data-name="Grupo 1110695" transform="translate(17411.797 7889)">
    <rect id="Rectángulo_34091" data-name="Rectángulo 34091" width="820" height="72" rx="8" transform="translate(-17247 -7889)" fill="#12263f"/>
    <text id="Reconocimientos_y_aleaciones_en_los_metales_preciosos_" data-name="Reconocimientos y aleaciones en los metales preciosos
" transform="translate(-16837 -7849)" fill="#fff" font-size="18" font-family="Roboto-Black, Roboto" font-weight="800"><tspan x="-226.815" y="0">Reconocimientos y aleaciones en los metales preciosos</tspan><tspan x="0" y="25"></tspan></text>
    <rect id="Rectángulo_403387" data-name="Rectángulo 403387" width="190" height="101" rx="8" transform="translate(-17409 -7744)" fill="#12263f"/>
    <text id="Los_metales_" data-name="Los metales
" transform="translate(-17396 -7704)" fill="#fff" font-size="16" font-family="Roboto-Regular, Roboto"><tspan x="37.008" y="15">Los metales</tspan></text>
    <rect id="Rectángulo_403388" data-name="Rectángulo 403388" width="214" height="101" rx="8" transform="translate(-17192 -7744)" fill="#12263f"/>
    <text id="Los_metales_de_transición_" data-name="Los metales de transición
" transform="translate(-17165 -7715)" fill="#fff" font-size="16" font-family="Roboto-Regular, Roboto"><tspan x="26.277" y="15">Los metales de </tspan><tspan x="45.398" y="39">transición</tspan></text>
    <rect id="Rectángulo_403389" data-name="Rectángulo 403389" width="218" height="101" rx="8" transform="translate(-16949 -7744)" fill="#12263f"/>
    <text id="Incluye_" data-name="Incluye
" transform="translate(-16965 -7812)" font-size="16" font-family="Roboto-Regular, Roboto"><tspan x="102.898" y="15">Incluye</tspan></text>
    <rect id="Rectángulo_403394" data-name="Rectángulo 403394" width="169" height="68" rx="8" transform="translate(-17160 -7573)" fill="#acc8e2"/>
    <rect id="Rectángulo_403395" data-name="Rectángulo 403395" width="169" height="68" rx="8" transform="translate(-17160 -7486)" fill="#acc8e2"/>
    <rect id="Rectángulo_403396" data-name="Rectángulo 403396" width="169" height="68" rx="8" transform="translate(-17160 -7399)" fill="#acc8e2"/>
    <rect id="Rectángulo_403397" data-name="Rectángulo 403397" width="169" height="68" rx="8" transform="translate(-17160 -7312)" fill="#acc8e2"/>
    <rect id="Rectángulo_403398" data-name="Rectángulo 403398" width="169" height="68" rx="8" transform="translate(-17160 -7225)" fill="#acc8e2"/>
    <rect id="Rectángulo_403399" data-name="Rectángulo 403399" width="169" height="68" rx="8" transform="translate(-17160 -7138)" fill="#acc8e2"/>
    <rect id="Rectángulo_403404" data-name="Rectángulo 403404" width="169" height="68" rx="8" transform="translate(-16920 -7573)" fill="#acc8e2"/>
    <rect id="Rectángulo_403405" data-name="Rectángulo 403405" width="169" height="68" rx="8" transform="translate(-16920 -7486)" fill="#acc8e2"/>
    <rect id="Rectángulo_403406" data-name="Rectángulo 403406" width="169" height="68" rx="8" transform="translate(-16920 -7399)" fill="#acc8e2"/>
    <rect id="Rectángulo_403407" data-name="Rectángulo 403407" width="169" height="68" rx="8" transform="translate(-16920 -7312)" fill="#acc8e2"/>
    <rect id="Rectángulo_403408" data-name="Rectángulo 403408" width="169" height="68" rx="8" transform="translate(-16920 -7225)" fill="#acc8e2"/>
    <rect id="Rectángulo_403414" data-name="Rectángulo 403414" width="169" height="68" rx="8" transform="translate(-16920 -7573)" fill="#acc8e2"/>
    <rect id="Rectángulo_403415" data-name="Rectángulo 403415" width="169" height="68" rx="8" transform="translate(-16920 -7486)" fill="#acc8e2"/>
    <rect id="Rectángulo_403416" data-name="Rectángulo 403416" width="169" height="68" rx="8" transform="translate(-16920 -7399)" fill="#acc8e2"/>
    <rect id="Rectángulo_403417" data-name="Rectángulo 403417" width="169" height="68" rx="8" transform="translate(-16920 -7312)" fill="#acc8e2"/>
    <rect id="Rectángulo_403418" data-name="Rectángulo 403418" width="169" height="68" rx="8" transform="translate(-16920 -7225)" fill="#acc8e2"/>
    <path id="Trazado_878021" data-name="Trazado 878021" d="M-12385.8-8662v500.009" transform="translate(-4801.102 1061)" fill="none" stroke="#3076b6" stroke-width="6"/>
    <path id="Trazado_878022" data-name="Trazado 878022" d="M-12385.8-8662v26.564" transform="translate(-25822.332 4846.796) rotate(90)" fill="none" stroke="#3076b6" stroke-width="6"/>
    <path id="Trazado_878023" data-name="Trazado 878023" d="M-12385.8-8662v26.564" transform="translate(-25822.332 4933.796) rotate(90)" fill="none" stroke="#3076b6" stroke-width="6"/>
    <path id="Trazado_878024" data-name="Trazado 878024" d="M-12385.8-8662v26.564" transform="translate(-25822.332 5020.796) rotate(90)" fill="none" stroke="#3076b6" stroke-width="6"/>
    <path id="Trazado_878025" data-name="Trazado 878025" d="M-12385.8-8662v26.564" transform="translate(-25822.332 5107.796) rotate(90)" fill="none" stroke="#3076b6" stroke-width="6"/>
    <path id="Trazado_878026" data-name="Trazado 878026" d="M-12385.8-8662v26.564" transform="translate(-25822.332 5194.796) rotate(90)" fill="none" stroke="#3076b6" stroke-width="6"/>
    <path id="Trazado_878027" data-name="Trazado 878027" d="M-12385.8-8662v26.564" transform="translate(-25822.332 5281.796) rotate(90)" fill="none" stroke="#3076b6" stroke-width="6"/>
    <path id="Trazado_878032" data-name="Trazado 878032" d="M-12385.8-8662v412.985" transform="translate(-4561.103 1061)" fill="none" stroke="#3076b6" stroke-width="6"/>
    <path id="Trazado_878033" data-name="Trazado 878033" d="M-12385.8-8662v26.564" transform="translate(-25582.334 4846.796) rotate(90)" fill="none" stroke="#3076b6" stroke-width="6"/>
    <path id="Trazado_878034" data-name="Trazado 878034" d="M-12385.8-8662v26.564" transform="translate(-25582.332 4933.796) rotate(90)" fill="none" stroke="#3076b6" stroke-width="6"/>
    <path id="Trazado_878035" data-name="Trazado 878035" d="M-12385.8-8662v26.564" transform="translate(-25582.332 5020.796) rotate(90)" fill="none" stroke="#3076b6" stroke-width="6"/>
    <path id="Trazado_878036" data-name="Trazado 878036" d="M-12385.8-8662v26.564" transform="translate(-25582.332 5107.796) rotate(90)" fill="none" stroke="#3076b6" stroke-width="6"/>
    <path id="Trazado_878037" data-name="Trazado 878037" d="M-12385.8-8662v26.564" transform="translate(-25582.332 5194.796) rotate(90)" fill="none" stroke="#3076b6" stroke-width="6"/>
    <path id="Trazado_878046" data-name="Trazado 878046" d="M-12385.8-8662v958.29" transform="translate(-25024.211 4621.797) rotate(90)" fill="none" stroke="#3076b6" stroke-width="6"/>
    <path id="Trazado_878047" data-name="Trazado 878047" d="M-12385.8-8662v22.967" transform="translate(-29703.658 -16406) rotate(180)" fill="none" stroke="#3076b6" stroke-width="6"/>
    <path id="Trazado_878048" data-name="Trazado 878048" d="M-12385.8-8662v17.8" transform="translate(-28987.297 -16406) rotate(180)" fill="none" stroke="#3076b6" stroke-width="6"/>
    <path id="Trazado_878049" data-name="Trazado 878049" d="M-12385.8-8662v17.8" transform="translate(-29220.295 -16406) rotate(180)" fill="none" stroke="#3076b6" stroke-width="6"/>
    <path id="Trazado_878050" data-name="Trazado 878050" d="M-12385.8-8662v17.8" transform="translate(-29464.297 -16406) rotate(180)" fill="none" stroke="#3076b6" stroke-width="6"/>
    <path id="Trazado_878051" data-name="Trazado 878051" d="M-12385.8-8662v21" transform="translate(-29220.295 -16426) rotate(180)" fill="none" stroke="#3076b6" stroke-width="6"/>
    <text id="Propiedades_de_los_Metales_" data-name="Propiedades de los
Metales
" transform="translate(-17162 -7562)" fill="#12263f" font-size="16" font-family="Roboto-Regular, Roboto"><tspan x="12.516" y="15">Propiedades de los</tspan><tspan x="52.008" y="33">Metales</tspan></text>
    <text id="Esctructura_compacta_" data-name="Esctructura
compacta
" transform="translate(-17160 -7471)" fill="#12263f" font-size="16" font-family="Roboto-Regular, Roboto"><tspan x="39.797" y="15">Esctructura</tspan><tspan x="44.746" y="33">compacta</tspan></text>
    <text id="Buen_conductor_de_calor_y_electricidad_" data-name="Buen conductor de calor y electricidad
" transform="translate(-17160 -7387)" fill="#12263f" font-size="16" font-family="Roboto-Regular, Roboto"><tspan x="13.668" y="15">Buen conductor de </tspan><tspan x="13.633" y="33">calor y electricidad</tspan></text>
    <text id="Hidrolizan_con_facilidad_" data-name="Hidrolizan con facilidad
" transform="translate(-17162 -7297)" fill="#12263f" font-size="16" font-family="Roboto-Regular, Roboto"><tspan x="29.395" y="15">Hidrolizan con </tspan><tspan x="49.984" y="33">facilidad</tspan></text>
    <text id="Tabla_periódica_" data-name="Tabla periódica
" transform="translate(-17160 -7201)" fill="#12263f" font-size="16" font-family="Roboto-Regular, Roboto"><tspan x="26.125" y="15">Tabla periódica</tspan></text>
    <text id="Aditivos_y_sus_propiedades_" data-name="Aditivos y sus propiedades
" transform="translate(-17160 -7126)" fill="#12263f" font-size="16" font-family="Roboto-Regular, Roboto"><tspan x="35.363" y="15">Aditivos y sus </tspan><tspan x="40.414" y="33">propiedades</tspan><tspan x="84.5" y="51"></tspan></text>
    <text id="Título_" data-name="Título
" transform="translate(-16917 -7550)" fill="#12263f" font-size="16" font-family="Roboto-Regular, Roboto"><tspan x="60.223" y="15">Título</tspan></text>
    <text id="Las_milésimas_" data-name="Las milésimas
" transform="translate(-16917 -7469)" fill="#12263f" font-size="16" font-family="Roboto-Regular, Roboto"><tspan x="-51.449" y="15">Las milésimas</tspan><tspan x="0" y="33"></tspan></text>
    <text id="Los_kilates_" data-name="Los kilates
" transform="translate(-16917 -7381)" fill="#12263f" font-size="16" font-family="Roboto-Regular, Roboto"><tspan x="42.262" y="15">Los kilates</tspan></text>
    <text id="Conversión_de_milésimas_a_kilates_" data-name="Conversión de 
milésimas a kilates
" transform="translate(-16837 -7284)" fill="#12263f" font-size="16" font-family="Roboto-Regular, Roboto"><tspan x="-52.707" y="0">Conversión de </tspan><tspan x="-68.266" y="18">milésimas a kilates</tspan><tspan x="0" y="36"></tspan></text>
    <text id="Conversación_kilates_a_milésimas_" data-name="Conversación kilates
a milésimas
" transform="translate(-16917 -7207)" fill="#12263f" font-size="16" font-family="Roboto-Regular, Roboto"><tspan x="6.719" y="15">Conversación kilates</tspan><tspan x="37.48" y="33">a milésimas</tspan></text>
    <rect id="Rectángulo_404172" data-name="Rectángulo 404172" width="218" height="101" rx="8" transform="translate(-16458 -7744)" fill="#12263f"/>
    <text id="Tipos_de_Joyas_" data-name="Tipos de Joyas
" transform="translate(-16427 -7704)" fill="#fff" font-size="16" font-family="Roboto-Regular, Roboto"><tspan x="26.777" y="15">Tipos de Joyas</tspan><tspan x="80.5" y="39"></tspan></text>
    <rect id="Rectángulo_404173" data-name="Rectángulo 404173" width="169" height="68" rx="8" transform="translate(-16424 -7573)" fill="#acc8e2"/>
    <rect id="Rectángulo_404174" data-name="Rectángulo 404174" width="169" height="68" rx="8" transform="translate(-16424 -7486)" fill="#acc8e2"/>
    <rect id="Rectángulo_404175" data-name="Rectángulo 404175" width="169" height="68" rx="8" transform="translate(-16424 -7399)" fill="#acc8e2"/>
    <rect id="Rectángulo_404176" data-name="Rectángulo 404176" width="169" height="68" rx="8" transform="translate(-16424 -7312)" fill="#acc8e2"/>
    <rect id="Rectángulo_404177" data-name="Rectángulo 404177" width="169" height="68" rx="8" transform="translate(-16424 -7225)" fill="#acc8e2"/>
    <rect id="Rectángulo_404178" data-name="Rectángulo 404178" width="169" height="68" rx="8" transform="translate(-16424 -7138)" fill="#acc8e2"/>
    <rect id="Rectángulo_404183" data-name="Rectángulo 404183" width="169" height="68" rx="8" transform="translate(-16424 -7573)" fill="#acc8e2"/>
    <rect id="Rectángulo_404184" data-name="Rectángulo 404184" width="169" height="68" rx="8" transform="translate(-16424 -7486)" fill="#acc8e2"/>
    <rect id="Rectángulo_404185" data-name="Rectángulo 404185" width="169" height="68" rx="8" transform="translate(-16424 -7399)" fill="#acc8e2"/>
    <rect id="Rectángulo_404186" data-name="Rectángulo 404186" width="169" height="68" rx="8" transform="translate(-16424 -7312)" fill="#acc8e2"/>
    <rect id="Rectángulo_404187" data-name="Rectángulo 404187" width="169" height="68" rx="8" transform="translate(-16424 -7225)" fill="#acc8e2"/>
    <rect id="Rectángulo_404188" data-name="Rectángulo 404188" width="169" height="68" rx="8" transform="translate(-16424 -7138)" fill="#acc8e2"/>
    <path id="Trazado_899473" data-name="Trazado 899473" d="M-12385.8-8662v500" transform="translate(-4065.102 1061)" fill="none" stroke="#3076b6" stroke-width="6"/>
    <path id="Trazado_899474" data-name="Trazado 899474" d="M-12385.8-8662v26.564" transform="translate(-25086.334 4846.796) rotate(90)" fill="none" stroke="#3076b6" stroke-width="6"/>
    <path id="Trazado_899475" data-name="Trazado 899475" d="M-12385.8-8662v26.564" transform="translate(-25086.332 4933.796) rotate(90)" fill="none" stroke="#3076b6" stroke-width="6"/>
    <path id="Trazado_899476" data-name="Trazado 899476" d="M-12385.8-8662v26.564" transform="translate(-25086.332 5020.796) rotate(90)" fill="none" stroke="#3076b6" stroke-width="6"/>
    <path id="Trazado_899477" data-name="Trazado 899477" d="M-12385.8-8662v26.564" transform="translate(-25086.332 5107.796) rotate(90)" fill="none" stroke="#3076b6" stroke-width="6"/>
    <path id="Trazado_899478" data-name="Trazado 899478" d="M-12385.8-8662v26.564" transform="translate(-25086.332 5194.796) rotate(90)" fill="none" stroke="#3076b6" stroke-width="6"/>
    <path id="Trazado_899479" data-name="Trazado 899479" d="M-12385.8-8662v26.564" transform="translate(-25086.332 5281.796) rotate(90)" fill="none" stroke="#3076b6" stroke-width="6"/>
    <text id="Aderezo_" data-name="Aderezo
" transform="translate(-16421 -7550)" fill="#12263f" font-size="16" font-family="Roboto-Regular, Roboto"><tspan x="51.195" y="15">Aderezo</tspan><tspan x="80.5" y="33"></tspan></text>
    <text id="Anillo_" data-name="Anillo
" transform="translate(-16421 -7460)" fill="#12263f" font-size="16" font-family="Roboto-Regular, Roboto"><tspan x="-20.02" y="15">Anillo</tspan><tspan x="0" y="33"></tspan></text>
    <text id="Brazalete_" data-name="Brazalete
" transform="translate(-16421 -7374)" fill="#12263f" font-size="16" font-family="Roboto-Regular, Roboto"><tspan x="47.27" y="15">Brazalete</tspan></text>
    <text id="Broche_" data-name="Broche
" transform="translate(-16421 -7289)" fill="#12263f" font-size="16" font-family="Roboto-Regular, Roboto"><tspan x="55.496" y="15">Broche</tspan></text>
    <text id="Cadena_" data-name="Cadena
" transform="translate(-16421 -7205)" fill="#12263f" font-size="16" font-family="Roboto-Regular, Roboto"><tspan x="53.426" y="15">Cadena</tspan></text>
    <text id="Colgante_" data-name="Colgante
" transform="translate(-16421 -7116)" fill="#12263f" font-size="16" font-family="Roboto-Regular, Roboto"><tspan x="48.684" y="15">Colgante</tspan></text>
    <rect id="Rectángulo_404193" data-name="Rectángulo 404193" width="169" height="68" rx="8" transform="translate(-16668.102 -7573)" fill="#acc8e2"/>
    <rect id="Rectángulo_404194" data-name="Rectángulo 404194" width="169" height="68" rx="8" transform="translate(-16668.102 -7486)" fill="#acc8e2"/>
    <rect id="Rectángulo_404195" data-name="Rectángulo 404195" width="169" height="68" rx="8" transform="translate(-16668.102 -7399)" fill="#acc8e2"/>
    <rect id="Rectángulo_404196" data-name="Rectángulo 404196" width="169" height="68" rx="8" transform="translate(-16668.102 -7312)" fill="#acc8e2"/>
    <rect id="Rectángulo_404197" data-name="Rectángulo 404197" width="169" height="68" rx="8" transform="translate(-16668.102 -7225)" fill="#acc8e2"/>
    <rect id="Rectángulo_404198" data-name="Rectángulo 404198" width="169" height="68" rx="8" transform="translate(-16668.102 -7138)" fill="#acc8e2"/>
    <rect id="Rectángulo_404203" data-name="Rectángulo 404203" width="169" height="68" rx="8" transform="translate(-16668.102 -7573)" fill="#acc8e2"/>
    <rect id="Rectángulo_404204" data-name="Rectángulo 404204" width="169" height="68" rx="8" transform="translate(-16668.102 -7486)" fill="#acc8e2"/>
    <rect id="Rectángulo_404205" data-name="Rectángulo 404205" width="169" height="68" rx="8" transform="translate(-16668.102 -7399)" fill="#acc8e2"/>
    <rect id="Rectángulo_404206" data-name="Rectángulo 404206" width="169" height="68" rx="8" transform="translate(-16668.102 -7312)" fill="#acc8e2"/>
    <rect id="Rectángulo_404207" data-name="Rectángulo 404207" width="169" height="68" rx="8" transform="translate(-16668.102 -7225)" fill="#acc8e2"/>
    <rect id="Rectángulo_404208" data-name="Rectángulo 404208" width="169" height="68" rx="8" transform="translate(-16668.102 -7138)" fill="#acc8e2"/>
    <path id="Trazado_899484" data-name="Trazado 899484" d="M-12385.8-8662v500.016" transform="translate(-4309.203 1061)" fill="none" stroke="#3076b6" stroke-width="6"/>
    <path id="Trazado_899485" data-name="Trazado 899485" d="M-12385.8-8662v26.564" transform="translate(-25330.436 4846.796) rotate(90)" fill="none" stroke="#3076b6" stroke-width="6"/>
    <path id="Trazado_899486" data-name="Trazado 899486" d="M-12385.8-8662v26.564" transform="translate(-25330.434 4933.796) rotate(90)" fill="none" stroke="#3076b6" stroke-width="6"/>
    <path id="Trazado_899487" data-name="Trazado 899487" d="M-12385.8-8662v26.564" transform="translate(-25330.434 5020.796) rotate(90)" fill="none" stroke="#3076b6" stroke-width="6"/>
    <path id="Trazado_899488" data-name="Trazado 899488" d="M-12385.8-8662v26.564" transform="translate(-25330.434 5107.796) rotate(90)" fill="none" stroke="#3076b6" stroke-width="6"/>
    <path id="Trazado_899489" data-name="Trazado 899489" d="M-12385.8-8662v26.564" transform="translate(-25330.434 5194.796) rotate(90)" fill="none" stroke="#3076b6" stroke-width="6"/>
    <path id="Trazado_899490" data-name="Trazado 899490" d="M-12385.8-8662v26.564" transform="translate(-25330.434 5281.796) rotate(90)" fill="none" stroke="#3076b6" stroke-width="6"/>
    <text id="Tipo_de_joyas_" data-name="Tipo de joyas
" transform="translate(-16665.102 -7550.5)" fill="#12263f" font-size="16" font-family="Roboto-Regular, Roboto"><tspan x="33.406" y="15">Tipo de joyas</tspan></text>
    <text id="Anillos_" data-name="Anillos
" transform="translate(-16665.102 -7460.5)" fill="#12263f" font-size="16" font-family="Roboto-Regular, Roboto"><tspan x="56.355" y="15">Anillos</tspan></text>
    <text id="Collares_" data-name="Collares
" transform="translate(-16665.102 -7379)" fill="#12263f" font-size="16" font-family="Roboto-Regular, Roboto"><tspan x="51.5" y="15">Collares</tspan></text>
    <text id="pulsera_" data-name="pulsera
" transform="translate(-16665.102 -7289)" fill="#12263f" font-size="16" font-family="Roboto-Regular, Roboto"><tspan x="54.395" y="15">pulsera</tspan></text>
    <text id="Aretes_" data-name="Aretes
" transform="translate(-16665.102 -7201.492)" fill="#12263f" font-size="16" font-family="Roboto-Regular, Roboto"><tspan x="57.434" y="15">Aretes</tspan></text>
    <text id="Broches_" data-name="Broches
" transform="translate(-16665.102 -7114)" fill="#12263f" font-size="16" font-family="Roboto-Regular, Roboto"><tspan x="51.371" y="15">Broches</tspan></text>
    <rect id="Rectángulo_404213" data-name="Rectángulo 404213" width="218" height="101" rx="8" transform="translate(-16700 -7744)" fill="#12263f"/>
    <text id="Datos_sobre_los_metales_" data-name="Datos sobre los
metales

" transform="translate(-16675.637 -7716)" fill="#fff" font-size="16" font-family="Roboto-Regular, Roboto"><tspan x="25.043" y="15">Datos sobre los</tspan><tspan x="51.98" y="39">metales</tspan></text>
    <path id="Trazado_899495" data-name="Trazado 899495" d="M-12385.8-8662v22.967" transform="translate(-28756.658 -16406) rotate(180)" fill="none" stroke="#3076b6" stroke-width="6"/>
    <text id="Contextualización_de_los_metales_" data-name="Contextualización
de los metales
" transform="translate(-16918 -7716)" fill="#fff" font-size="16" font-family="Roboto-Regular, Roboto"><tspan x="16.82" y="15">Contextualización</tspan><tspan x="28.641" y="39">de los metales</tspan></text>
    <text id="Contiene_" data-name="Contiene
" transform="translate(-17409 -7626)" font-size="16" font-family="Roboto-Regular, Roboto"><tspan x="0" y="15">Contiene</tspan></text>
    <text id="Tienen_" data-name="Tienen
" transform="translate(-17192 -7626)" font-size="16" font-family="Roboto-Regular, Roboto"><tspan x="0" y="15">Tienen</tspan></text>
    <text id="Para_" data-name="Para
" transform="translate(-16700 -7626)" font-size="16" font-family="Roboto-Regular, Roboto"><tspan x="0" y="15">Para</tspan></text>
    <text id="Comprende_" data-name="Comprende
" transform="translate(-16952 -7626)" font-size="16" font-family="Roboto-Regular, Roboto"><tspan x="0" y="15">Comprende</tspan></text>
    <text id="Abarca_" data-name="Abarca
" transform="translate(-16456 -7626)" font-size="16" font-family="Roboto-Regular, Roboto"><tspan x="0" y="15">Abarca</tspan></text>
    <rect id="Rectángulo_404214" data-name="Rectángulo 404214" width="169" height="68" rx="8" transform="translate(-17381.898 -7573)" fill="#acc8e2"/>
    <rect id="Rectángulo_404215" data-name="Rectángulo 404215" width="169" height="68" rx="8" transform="translate(-17381.898 -7486)" fill="#acc8e2"/>
    <rect id="Rectángulo_404216" data-name="Rectángulo 404216" width="169" height="68" rx="8" transform="translate(-17381.898 -7399)" fill="#acc8e2"/>
    <rect id="Rectángulo_404217" data-name="Rectángulo 404217" width="169" height="68" rx="8" transform="translate(-17381.898 -7312)" fill="#acc8e2"/>
    <rect id="Rectángulo_404218" data-name="Rectángulo 404218" width="169" height="68" rx="8" transform="translate(-17381.898 -7225)" fill="#acc8e2"/>
    <rect id="Rectángulo_404219" data-name="Rectángulo 404219" width="169" height="68" rx="8" transform="translate(-17381.898 -7138)" fill="#acc8e2"/>
    <path id="Trazado_899496" data-name="Trazado 899496" d="M-12385.8-8662v500" transform="translate(-5023 1061)" fill="none" stroke="#3076b6" stroke-width="6"/>
    <path id="Trazado_899497" data-name="Trazado 899497" d="M-12385.8-8662v26.564" transform="translate(-26044.23 4846.796) rotate(90)" fill="none" stroke="#3076b6" stroke-width="6"/>
    <path id="Trazado_899498" data-name="Trazado 899498" d="M-12385.8-8662v26.564" transform="translate(-26044.23 4933.796) rotate(90)" fill="none" stroke="#3076b6" stroke-width="6"/>
    <path id="Trazado_899499" data-name="Trazado 899499" d="M-12385.8-8662v26.564" transform="translate(-26044.23 5020.796) rotate(90)" fill="none" stroke="#3076b6" stroke-width="6"/>
    <path id="Trazado_899500" data-name="Trazado 899500" d="M-12385.8-8662v26.564" transform="translate(-26044.23 5107.796) rotate(90)" fill="none" stroke="#3076b6" stroke-width="6"/>
    <path id="Trazado_899501" data-name="Trazado 899501" d="M-12385.8-8662v26.564" transform="translate(-26044.23 5194.796) rotate(90)" fill="none" stroke="#3076b6" stroke-width="6"/>
    <path id="Trazado_899502" data-name="Trazado 899502" d="M-12385.8-8662v26.564" transform="translate(-26044.23 5281.796) rotate(90)" fill="none" stroke="#3076b6" stroke-width="6"/>
    <text id="Metal_noble_y_metal_precioso_" data-name="Metal noble y metal
precioso
" transform="translate(-17381.898 -7562)" fill="#12263f" font-size="16" font-family="Roboto-Regular, Roboto"><tspan x="10.844" y="15">Metal noble y metal</tspan><tspan x="49.762" y="33">precioso</tspan></text>
    <text id="Oro_" data-name="Oro
" transform="translate(-17381.898 -7464)" fill="#12263f" font-size="16" font-family="Roboto-Regular, Roboto"><tspan x="-12.691" y="15">Oro</tspan><tspan x="0" y="33"></tspan></text>
    <text id="Platino_" data-name="Platino
" transform="translate(-17381.898 -7382)" fill="#12263f" font-size="16" font-family="Roboto-Regular, Roboto"><tspan x="55.629" y="15">Platino</tspan><tspan x="80.5" y="33"></tspan></text>
    <text id="Paladio_" data-name="Paladio
" transform="translate(-17381.898 -7293)" fill="#12263f" font-size="16" font-family="Roboto-Regular, Roboto"><tspan x="53.836" y="15">Paladio</tspan><tspan x="80.5" y="33"></tspan></text>
    <text id="Radio_" data-name="Radio
" transform="translate(-17381.898 -7203)" fill="#12263f" font-size="16" font-family="Roboto-Regular, Roboto"><tspan x="-20.293" y="15">Radio</tspan><tspan x="0" y="33"></tspan></text>
    <text id="Cobre_" data-name="Cobre
" transform="translate(-17381.898 -7116)" fill="#12263f" font-size="16" font-family="Roboto-Regular, Roboto"><tspan x="-21.129" y="15">Cobre</tspan><tspan x="0" y="33"></tspan></text>
  </g>
</svg>
