<svg xmlns="http://www.w3.org/2000/svg" xmlns:xlink="http://www.w3.org/1999/xlink" width="1241.809" height="561.387" viewBox="0 0 1241.809 561.387">
  <defs>
    <linearGradient id="linear-gradient" x1="0.763" y1="-1.174" x2="0.5" y2="1.13" gradientUnits="objectBoundingBox">
      <stop offset="0" stop-color="#df7d2a"/>
      <stop offset="0.661" stop-color="#2c3465"/>
      <stop offset="1" stop-color="#080a13"/>
    </linearGradient>
    <clipPath id="clip-path">
      <rect id="Rectángulo_404837" data-name="Rectángulo 404837" width="340.724" height="309.173" rx="90" transform="translate(381.116 318.147)" fill="#4b4968" stroke="#707070" stroke-width="1"/>
    </clipPath>
  </defs>
  <g id="fnd-1" transform="translate(9369.382 1370.342)">
    <g id="Grupo_1110813" data-name="Grupo 1110813">
      <path id="vista-lateral-hombre-revelando-fotos_1_" data-name="vista-lateral-hombre-revelando-fotos (1)" d="M1218.775,0H23.034C10.313,0,0,11.138,0,24.878v511.63c0,13.74,10.313,24.878,23.034,24.878H1218.775c12.721,0,23.034-11.138,23.034-24.878V24.878C1241.809,11.138,1231.5,0,1218.775,0Z" transform="translate(-9369.383 -1370.342)" opacity="0.93" fill="url(#linear-gradient)"/>
      <path id="Trazado_900444" data-name="Trazado 900444" d="M8.3,0A1.561,1.561,0,0,0,6.739,1.564V6.739H1.564a1.563,1.563,0,1,0,0,3.127H6.739v5.174a1.562,1.562,0,1,0,3.124,0V9.865h5.174a1.563,1.563,0,0,0,0-3.127H9.863V1.564A1.561,1.561,0,0,0,8.3,0Z" transform="matrix(0.719, 0.695, -0.695, 0.719, -8187.4, -1121.037)" fill="#ffcf11" opacity="0.42"/>
      <path id="Trazado_900466" data-name="Trazado 900466" d="M8.3,0A1.561,1.561,0,0,0,6.739,1.564V6.739H1.564a1.563,1.563,0,1,0,0,3.127H6.739v5.174a1.562,1.562,0,1,0,3.124,0V9.865h5.174a1.563,1.563,0,0,0,0-3.127H9.863V1.564A1.561,1.561,0,0,0,8.3,0Z" transform="translate(-8309.645 -1195.853) rotate(19)" fill="#ffcf11" opacity="0.42"/>
      <path id="Trazado_900465" data-name="Trazado 900465" d="M8.3,0A1.561,1.561,0,0,0,6.739,1.564V6.739H1.564a1.563,1.563,0,1,0,0,3.127H6.739v5.174a1.562,1.562,0,1,0,3.124,0V9.865h5.174a1.563,1.563,0,0,0,0-3.127H9.863V1.564A1.561,1.561,0,0,0,8.3,0Z" transform="matrix(0.719, 0.695, -0.695, 0.719, -8223.4, -969.037)" fill="#ffcf11" opacity="0.42"/>
      <path id="Trazado_900467" data-name="Trazado 900467" d="M6.647,0A1.25,1.25,0,0,0,5.4,1.253V5.4H1.253a1.252,1.252,0,1,0,0,2.5H5.4v4.143a1.251,1.251,0,1,0,2.5,0V7.9h4.143a1.252,1.252,0,0,0,0-2.5H7.9V1.253A1.25,1.25,0,0,0,6.647,0Z" transform="matrix(0.719, 0.695, -0.695, 0.719, -8461.698, -1179.948)" fill="#ffcf11" opacity="0.42"/>
      <circle id="Elipse_12466" data-name="Elipse 12466" cx="3" cy="3" r="3" transform="translate(-8394.05 -1198.579)" fill="#ffcf11" opacity="0.42"/>
      <circle id="Elipse_12427" data-name="Elipse 12427" cx="5" cy="5" r="5" transform="translate(-8208.05 -1166.579)" fill="#ffcf11" opacity="0.42"/>
      <circle id="Elipse_12428" data-name="Elipse 12428" cx="5" cy="5" r="5" transform="translate(-8162.05 -1102.578)" fill="#ffcf11" opacity="0.42"/>
      <circle id="Elipse_12429" data-name="Elipse 12429" cx="4" cy="4" r="4" transform="translate(-8199.05 -980.578)" fill="#ffcf11" opacity="0.42"/>
      <g id="Enmascarar_grupo_1101715" data-name="Enmascarar grupo 1101715" transform="translate(-8697.281 -1656.678) rotate(21)" opacity="0.62" clip-path="url(#clip-path)">
        <g id="Grupo_1110775" data-name="Grupo 1110775" transform="translate(-351.473 -187.896)">
          <text id="THE_DIAMOND" data-name="THE DIAMOND" transform="translate(0 1568.311)" fill="#4b4968" font-size="225" font-family="SegoeUI, Segoe UI"><tspan x="0" y="0">THE DIAMOND</tspan></text>
          <g id="Grupo_1110768" data-name="Grupo 1110768" transform="translate(162.616 1634.022)">
            <text id="ORIGINAL_BRAND" data-name="ORIGINAL BRAND" transform="translate(0 96)" fill="#4b4968" font-size="89" font-family="SegoeUI, Segoe UI"><tspan x="0" y="0">ORIGINAL BRAND</tspan></text>
          </g>
          <g id="Grupo_1110773" data-name="Grupo 1110773" transform="translate(129.681 754.805)">
            <g id="Grupo_1110769" data-name="Grupo 1110769">
              <ellipse id="Elipse_12430" data-name="Elipse 12430" cx="131.458" cy="131.882" rx="131.458" ry="131.882" transform="translate(8.047 8.074)" fill="#4b4968"/>
              <path id="Trazado_900445" data-name="Trazado 900445" d="M434.093,632.745c-76.92,0-139.5-62.786-139.5-139.955s62.585-139.955,139.505-139.955S573.6,415.622,573.6,492.79,511.013,632.745,434.093,632.745Zm0-263.763c-68.044,0-123.41,55.544-123.41,123.808S366.049,616.6,434.093,616.6,557.5,561.053,557.5,492.79,502.137,368.982,434.093,368.982Z" transform="translate(-294.588 -352.835)" fill="#4b4968"/>
            </g>
            <g id="Grupo_1110770" data-name="Grupo 1110770" transform="translate(1261.173)">
              <ellipse id="Elipse_12431" data-name="Elipse 12431" cx="131.458" cy="131.882" rx="131.458" ry="131.882" transform="translate(8.047 8.074)" fill="#4b4968"/>
              <path id="Trazado_900446" data-name="Trazado 900446" d="M545.208,632.745c-76.92,0-139.5-62.786-139.5-139.955s62.584-139.955,139.5-139.955S684.713,415.622,684.713,492.79,622.128,632.745,545.208,632.745Zm0-263.763c-68.044,0-123.41,55.544-123.41,123.808S477.163,616.6,545.208,616.6s123.41-55.545,123.41-123.808S613.252,368.982,545.208,368.982Z" transform="translate(-405.703 -352.835)" fill="#4b4968"/>
            </g>
            <g id="Grupo_1110771" data-name="Grupo 1110771" transform="translate(53.119 6.728)">
              <text id="_19" data-name="19" transform="translate(0 170)" fill="#4b4968" font-size="158" font-family="SegoeUI, Segoe UI"><tspan x="0" y="0">19</tspan></text>
            </g>
            <g id="Grupo_1110772" data-name="Grupo 1110772" transform="translate(1324.236 6.728)">
              <text id="_71" data-name="71" transform="translate(0 170)" fill="#4b4968" font-size="158" font-family="SegoeUI, Segoe UI"><tspan x="0" y="0">71</tspan></text>
            </g>
          </g>
          <g id="Grupo_1110774" data-name="Grupo 1110774" transform="translate(347.386)">
            <path id="Trazado_900447" data-name="Trazado 900447" d="M578.843,1168.873c82.13,67.148,178.8,101.206,287.318,101.206a500.045,500.045,0,0,0,85.9-7.265c400.876-70.12,465.845-630.394,466.458-636.042a8.071,8.071,0,0,0-6.038-8.7c-1.407-.353-110.7-28.239-189.06-75.824.476-1.1.771-1.845.806-1.947a8.083,8.083,0,0,0-4.722-10.384,7.923,7.923,0,0,0-9.67,3.632c-16.878-11.353-31.77-23.684-42.961-36.938-47.977-56.843-59.849-103.05-62.8-121.872a31.593,31.593,0,0,0,1.373-9.178c0-51.32-123.286-79.013-239.284-79.013s-239.284,27.7-239.284,79.013a31.5,31.5,0,0,0,1.374,9.166c-2.951,18.845-14.835,65.041-62.8,121.872-11.134,13.2-25.946,25.472-42.745,36.779a7.962,7.962,0,0,0-8.581-3.792c-3.553.8-7.083,4.236-6.458,9.884a23.817,23.817,0,0,0,.636,3.12c-78.316,47.369-187.028,75.118-188.447,75.471a8.058,8.058,0,0,0-6.027,8.79C314.248,630.484,360.023,989.975,578.843,1168.873Zm287.307-866.18c122.173,0,209.83,28.592,221.692,56.49a16.49,16.49,0,0,1,1.5,6.388c0,3.644-1.419,7.344-4.075,11.022-19.034,26.338-103.706,51.855-219.115,51.855s-200.092-25.517-219.115-51.855c-2.656-3.678-4.075-7.379-4.075-11.022a16.487,16.487,0,0,1,1.5-6.388C656.331,331.285,743.976,302.693,866.149,302.693ZM577.719,507.04c40.179-47.619,56.444-88.145,63.05-113.492,35.345,33.318,132.661,51.035,225.38,51.035s190.024-17.718,225.38-51.024c6.606,25.347,22.871,65.872,63.05,113.492,12.61,14.94,29.295,28.672,48.068,41.163C1180.265,589.992,1094.468,714.3,866.285,714.3c-225.494,0-318.361-122.419-338.405-164.891C547.391,536.6,564.712,522.446,577.719,507.04ZM812.77,920.926c18.943,1.423,37.592,2.015,53.391,2.015s34.448-.6,53.391-2.015l-53.391,124.6Zm86.273-36.312L916.125,905.1c-15.05,1.07-31.678,1.708-49.975,1.708s-34.924-.649-49.975-1.708l17.082-20.485,1.543-1.856,31.349-37.576L897.5,882.758ZM773.021,825.528c16.14,10.772,53.119,13.9,76.194,14.792l-35.4,42.439-1.543,1.856-15.652,18.754c-38.466-4.065-63.254-11.011-72.732-16.693a17.66,17.66,0,0,1-2.894-2.072c-.057-.057-.148-.1-.2-.159l.612-.683.885-1Zm21.509,93.736,43.312,101.092L744.465,910.815C759.22,914.629,776.574,917.373,794.53,919.264Zm143.239,0c17.956-1.89,35.322-4.646,50.065-8.449l-93.378,109.541Zm73.129-35.493.488.558c-.1.091-.261.194-.363.285a17.1,17.1,0,0,1-2.316,1.719c-9.307,5.841-34.232,12.913-73.038,17.035l-15.641-18.754-1.544-1.856-35.4-42.439c23.086-.888,60.053-4.02,76.194-14.792L1010,882.758Zm-60.349-71.5a13.255,13.255,0,0,1-1.623,1.013c-8.763,4.634-36.968,11.25-82.765,11.25s-74-6.616-82.765-11.25a11.369,11.369,0,0,1-1.623-1.013,13.105,13.105,0,0,1,1.611-1c8.751-4.623,36.945-11.239,82.777-11.239s74.026,6.616,82.777,11.239A13.508,13.508,0,0,1,950.549,812.274ZM514.34,557.859c24.221,49.612,118.269,169.549,343.762,172.43v53.689c-26.105.513-90.086,4.054-92.753,25.939l-59.815,67.49a7.685,7.685,0,0,0-.545.934,8.367,8.367,0,0,0-.931,1.594,8.8,8.8,0,0,0-.341,1.663,8.272,8.272,0,0,0-.238,1.172c0,.08.045.148.045.228a6.116,6.116,0,0,0,.079.649,8.015,8.015,0,0,0,1.816,6.206l.6.706,4.393,5.158,149.572,175.459.034.045c.012.012.034.023.045.034a1.782,1.782,0,0,1,.147.137c.148.171.341.284.5.444a8,8,0,0,0,1.737,1.23,3.874,3.874,0,0,0,.4.25c.034.011.057.045.091.068.114.046.238.034.363.08a7.168,7.168,0,0,0,5.652,0c.113-.045.238-.023.363-.08.034-.012.057-.045.091-.068.148-.069.261-.182.4-.25a8.019,8.019,0,0,0,1.737-1.23c.17-.159.352-.273.511-.444a1.745,1.745,0,0,1,.148-.137c.011-.011.034-.023.045-.034l.045-.045,149.572-175.459,4.4-5.158.6-.694a7.972,7.972,0,0,0,1.816-6.206c.023-.216.068-.432.079-.649,0-.08.045-.148.045-.228a280.987,280.987,0,0,0-.556-2.824,7.968,7.968,0,0,0-1.271-2.175c-.091-.114-.114-.25-.216-.364l-.1-.114-.4-.444L966.95,809.928c-2.667-21.885-66.648-25.426-92.765-25.939v-53.7c227.752-2.881,317.021-127.839,342-173.477,69.463,42.029,159.651,68.161,185.439,75.118-8.717,63.971-87.079,551.1-452.361,615a483.975,483.975,0,0,1-83.129,7.014c-104.717,0-197.958-32.828-277.16-97.573C391.917,995.27,338.253,682.5,330.739,631.907,356.447,624.961,445.206,599.216,514.34,557.859Z" transform="translate(-313.769 -286.547)" fill="#4b4968"/>
            <path id="Trazado_900448" data-name="Trazado 900448" d="M1212.268,554.43c-1.18,0-119.267-.74-171.115-68.082-24.006-31.166-34.232-73.023-38.58-102.663a8.049,8.049,0,1,0-15.924,2.357c4.631,31.541,15.64,76.246,41.78,110.179,48.976,63.595,146.882,72.8,175.791,74.128v70.359H339V570.348c28.909-1.321,126.827-10.533,175.8-74.128,27.059-35.139,37.978-81.654,42.371-114.494a8.052,8.052,0,0,0-6.9-9.075,7.963,7.963,0,0,0-9.046,6.912c-4.132,30.892-14.29,74.48-39.147,106.774-51.779,67.216-169.946,68.082-171.126,68.082a8.062,8.062,0,0,0-8.048,8.073v86.277a8.054,8.054,0,0,0,8.048,8.074h881.318a8.054,8.054,0,0,0,8.047-8.074V562.492a8.053,8.053,0,0,0-8.048-8.062Z" transform="translate(-219.218 606.861)" fill="#4b4968"/>
          </g>
        </g>
      </g>
    </g>
  </g>
</svg>
