<svg xmlns="http://www.w3.org/2000/svg" xmlns:xlink="http://www.w3.org/1999/xlink" width="1328.497" height="466.237" viewBox="0 0 1328.497 466.237">
  <defs>
    <linearGradient id="linear-gradient" x1="0.841" y1="0.278" x2="0.46" y2="0.583" gradientUnits="objectBoundingBox">
      <stop offset="0" stop-color="#d93448"/>
      <stop offset="1" stop-color="#744b1e" stop-opacity="0"/>
    </linearGradient>
    <clipPath id="clip-path">
      <rect id="Rectángulo_404919" data-name="Rectángulo 404919" width="1328.497" height="466.237" fill="url(#linear-gradient)"/>
    </clipPath>
    <linearGradient id="linear-gradient-2" x1="0.459" y1="0.126" x2="0.46" y2="0.583" gradientUnits="objectBoundingBox">
      <stop offset="0" stop-color="#4e87b2"/>
      <stop offset="1" stop-color="#fce6ce" stop-opacity="0"/>
    </linearGradient>
  </defs>
  <g id="fnd-2" transform="translate(-5984 6757.967)">
    <g id="Enmascarar_grupo_1101732" data-name="Enmascarar grupo 1101732" transform="translate(5984 -6757.967)" clip-path="url(#clip-path)">
      <path id="Trazado_900617" data-name="Trazado 900617" d="M0,43.844s55.942,30.49,127.962,42.63c73.265,12.141,146.178,22.929,213.615,20,68.682-1.65,175.593-13,244.725-28.54S839.322,25.513,896.01,15.376C952.7,6.52,1006.479-1.936,1114.842,2.851s196.095,17.75,214.621,31.67V618.112s-81.54,23.138-135.5,31.315c-52.713,8.177-202.707,10.729-331.139-12.811-105.684-19.559-258.029-57.885-352.093-72.3-13.655-2.093-251-11.71-315.023-2.429C132.931,571.17,25.517,598.1,4.839,608.22,4.839,593.444,0,43.844,0,43.844Z" transform="translate(-0.384 -1.03)" fill-rule="evenodd" fill="url(#linear-gradient-2)"/>
    </g>
  </g>
</svg>
